<svg width="97" height="97" viewBox="0 0 97 97" fill="none" xmlns="http://www.w3.org/2000/svg">
<rect opacity="0.2" x="-12" y="-12" width="120" height="120" fill="black" fill-opacity="0.01"/>
<path fill-rule="evenodd" clip-rule="evenodd" d="M11.2002 25.0511C11.2002 23.5869 12.3872 22.3999 13.8514 22.3999H81.1919C82.6561 22.3999 83.8431 23.5869 83.8431 25.0511V50.3093C83.8431 51.7735 82.6561 52.9605 81.1919 52.9605H13.8514C12.3872 52.9605 11.2002 51.7735 11.2002 50.3093V25.0511Z" fill="#FA6800"/>
<g opacity="0.2">
<path fill-rule="evenodd" clip-rule="evenodd" d="M11.2002 41.0511C11.2002 39.5869 12.3872 38.3999 13.8514 38.3999H81.1919C82.6561 38.3999 83.8431 39.5869 83.8431 41.0511V51.0287C83.8431 52.4929 82.6561 53.6799 81.1919 53.6799H13.8514C12.3872 53.6799 11.2002 52.4929 11.2002 51.0287V41.0511Z" fill="url(#paint0_linear_0_957)" style="mix-blend-mode:overlay"/>
</g>
<path opacity="0.5" fill-rule="evenodd" clip-rule="evenodd" d="M47.3838 34.7508C47.3838 33.2866 48.5708 32.0996 50.035 32.0996H69.6539C71.1181 32.0996 72.3051 33.2866 72.3051 34.7508V41.4069C72.3051 42.8711 71.1181 44.0581 69.6539 44.0581H50.035C48.5708 44.0581 47.3838 42.8711 47.3838 41.4069V34.7508Z" fill="white"/>
<path fill-rule="evenodd" clip-rule="evenodd" d="M34.6392 27.7438C29.6924 23.7359 22.4072 24.041 17.795 28.6532C13.1828 33.2654 12.8777 40.5506 16.8856 45.4975L16.8367 45.5463L17.7741 46.4837L54.6133 83.3229C55.6486 84.3582 57.3273 84.3582 58.3626 83.3229L72.4646 69.2208C73.5 68.1855 73.5 66.5068 72.4646 65.4715L35.6254 28.6323L34.6881 27.6949L34.6392 27.7438Z" fill="white"/>
<mask id="mask0_0_957" style="mask-type:alpha" maskUnits="userSpaceOnUse" x="-1" y="23" width="77" height="77">
<path fill-rule="evenodd" clip-rule="evenodd" d="M12.9793 23.532L75.7316 87.7718C75.7316 87.7718 66.2301 99.1046 63.7613 99.1046C61.2926 99.1046 -0.0214844 37.7984 -0.0214844 37.7984L12.9793 23.532Z" fill="white"/>
</mask>
<g mask="url(#mask0_0_957)">
<path opacity="0.03" fill-rule="evenodd" clip-rule="evenodd" d="M16.8857 45.4975C12.8778 40.5506 13.1829 33.2654 17.7951 28.6532C22.4073 24.041 29.6925 23.7359 34.6393 27.7438L34.6882 27.6949L72.4647 65.4715C73.5001 66.5068 73.5001 68.1855 72.4647 69.2208L58.3627 83.3229C57.3273 84.3582 55.6487 84.3582 54.6133 83.3229L16.8368 45.5463L16.8857 45.4975V45.4975Z" fill="url(#paint1_linear_0_957)"/>
</g>
<path fill-rule="evenodd" clip-rule="evenodd" d="M26.8367 45.3869C30.8633 45.3869 34.1275 42.115 34.1275 38.079C34.1275 34.0429 30.8633 30.771 26.8367 30.771C22.8101 30.771 19.5459 34.0429 19.5459 38.079C19.5459 42.115 22.8101 45.3869 26.8367 45.3869Z" fill="#FA6800"/>
<defs>
<linearGradient id="paint0_linear_0_957" x1="55.5528" y1="56.5443" x2="56.968" y2="40.8583" gradientUnits="userSpaceOnUse">
<stop stop-color="white" stop-opacity="0.5"/>
<stop offset="1"/>
</linearGradient>
<linearGradient id="paint1_linear_0_957" x1="28.8792" y1="54.5247" x2="28.8792" y2="84.0994" gradientUnits="userSpaceOnUse">
<stop/>
<stop offset="1" stop-opacity="0.01"/>
</linearGradient>
</defs>
</svg>
