<svg width="300" height="120" viewBox="0 0 300 120" fill="none" xmlns="http://www.w3.org/2000/svg">
<rect width="300" height="120" fill="#D8D8D8" fill-opacity="0.01"/>
<path d="M28.091 53C28.0108 53 27.9301 52.9827 27.8538 52.946C27.6067 52.8272 27.4872 52.5464 27.5739 52.2888L31.698 40.04H27.5456C27.3634 40.04 27.1932 39.9498 27.0918 39.7997C26.9903 39.6496 26.9718 39.459 27.0421 39.2926L32.4965 26.3326C32.5811 26.1312 32.7796 26 33 26H38.1816C38.3665 26 38.5389 26.0929 38.6392 26.2462C38.7402 26.4001 38.7549 26.5935 38.6796 26.7603L34.387 36.26H38.4543C38.6545 36.26 38.8389 36.3691 38.9343 36.543C39.0298 36.7174 39.0205 36.9296 38.9109 37.0954L28.5476 52.7554C28.4434 52.9131 28.2699 53 28.091 53Z" fill="#FA6800"/>
<path opacity="0.5" d="M58.271 33H56.665L52.5454 26.4429V33H50.9395V23.7578H52.5454L56.6777 30.3403V23.7578H58.271V33ZM63.0444 33.127C62.0669 33.127 61.2734 32.8201 60.6641 32.2065C60.0589 31.5887 59.7563 30.7677 59.7563 29.7437V29.5532C59.7563 28.8677 59.8875 28.2562 60.1499 27.7188C60.4165 27.1771 60.7889 26.756 61.2671 26.4556C61.7453 26.1551 62.2785 26.0049 62.8667 26.0049C63.8019 26.0049 64.5234 26.3032 65.0312 26.8999C65.5433 27.4966 65.7993 28.3408 65.7993 29.4326V30.0547H61.3115C61.3581 30.6217 61.5464 31.0703 61.8765 31.4004C62.2108 31.7305 62.6297 31.8955 63.1333 31.8955C63.84 31.8955 64.4155 31.6099 64.8599 31.0386L65.6914 31.832C65.4163 32.2425 65.0482 32.562 64.5869 32.7905C64.1299 33.0148 63.6157 33.127 63.0444 33.127ZM62.8604 27.2427C62.4372 27.2427 62.0944 27.3908 61.832 27.687C61.5739 27.9832 61.4089 28.3958 61.3369 28.9248H64.2759V28.8105C64.242 28.2943 64.1045 27.9049 63.8633 27.6426C63.6221 27.376 63.2878 27.2427 62.8604 27.2427ZM68.9351 24.4624V26.1318H70.1475V27.2744H68.9351V31.1084C68.9351 31.3708 68.9858 31.5612 69.0874 31.6797C69.1932 31.7939 69.3794 31.8511 69.646 31.8511C69.8237 31.8511 70.0036 31.8299 70.1855 31.7876V32.981C69.8343 33.0783 69.4958 33.127 69.1699 33.127C67.985 33.127 67.3926 32.4731 67.3926 31.1655V27.2744H66.2627V26.1318H67.3926V24.4624H68.9351ZM77.3647 30.8735L78.4565 26.1318H79.9609L78.0884 33H76.8188L75.3462 28.2837L73.8989 33H72.6294L70.7505 26.1318H72.2549L73.3657 30.8228L74.7749 26.1318H75.9365L77.3647 30.8735ZM80.7036 29.5024C80.7036 28.8296 80.8369 28.2244 81.1035 27.687C81.3701 27.1453 81.7446 26.7306 82.2271 26.4429C82.7095 26.1509 83.2638 26.0049 83.8901 26.0049C84.8169 26.0049 85.568 26.3032 86.1436 26.8999C86.7233 27.4966 87.0365 28.2879 87.083 29.2739L87.0894 29.6357C87.0894 30.3128 86.9582 30.918 86.6958 31.4512C86.4377 31.9844 86.0653 32.397 85.5786 32.689C85.0962 32.981 84.5376 33.127 83.9028 33.127C82.9338 33.127 82.1572 32.8053 81.5732 32.1621C80.9935 31.5146 80.7036 30.6535 80.7036 29.5786V29.5024ZM82.2461 29.6357C82.2461 30.3424 82.3921 30.8968 82.6841 31.2988C82.9761 31.6966 83.3823 31.8955 83.9028 31.8955C84.4233 31.8955 84.8275 31.6924 85.1152 31.2861C85.4072 30.8799 85.5532 30.2853 85.5532 29.5024C85.5532 28.8084 85.403 28.2583 85.1025 27.8521C84.8063 27.4458 84.4022 27.2427 83.8901 27.2427C83.3866 27.2427 82.9867 27.4437 82.6904 27.8457C82.3942 28.2435 82.2461 28.8402 82.2461 29.6357ZM91.9897 27.541C91.7866 27.5072 91.5771 27.4902 91.3613 27.4902C90.6546 27.4902 90.1785 27.7611 89.9331 28.3027V33H88.3906V26.1318H89.8633L89.9014 26.8999C90.2738 26.3032 90.79 26.0049 91.4502 26.0049C91.6702 26.0049 91.8522 26.0345 91.9961 26.0938L91.9897 27.541ZM95.1953 30.0547L94.5098 30.7593V33H92.9673V23.25H94.5098V28.874L94.9922 28.271L96.8901 26.1318H98.7437L96.1919 28.9946L99.0166 33H97.2329L95.1953 30.0547ZM106.843 31.1338C106.843 30.8587 106.729 30.6493 106.5 30.5054C106.276 30.3615 105.902 30.2345 105.377 30.1245C104.852 30.0145 104.414 29.8748 104.063 29.7056C103.293 29.3332 102.908 28.7936 102.908 28.0869C102.908 27.4945 103.157 26.9993 103.657 26.6016C104.156 26.2038 104.791 26.0049 105.561 26.0049C106.382 26.0049 107.044 26.208 107.548 26.6143C108.056 27.0205 108.31 27.5474 108.31 28.1948H106.767C106.767 27.8986 106.657 27.6532 106.437 27.4585C106.217 27.2596 105.925 27.1602 105.561 27.1602C105.222 27.1602 104.945 27.2384 104.729 27.395C104.518 27.5516 104.412 27.7611 104.412 28.0234C104.412 28.2604 104.512 28.4445 104.71 28.5757C104.909 28.7069 105.311 28.8402 105.917 28.9756C106.522 29.1068 106.996 29.2655 107.338 29.4517C107.685 29.6336 107.941 29.8537 108.106 30.1118C108.276 30.37 108.36 30.6831 108.36 31.0513C108.36 31.6691 108.104 32.1706 107.592 32.5557C107.08 32.9365 106.41 33.127 105.58 33.127C105.017 33.127 104.516 33.0254 104.076 32.8223C103.636 32.6191 103.293 32.3398 103.047 31.9844C102.802 31.6289 102.679 31.2459 102.679 30.8354H104.177C104.198 31.1994 104.336 31.4808 104.59 31.6797C104.844 31.8743 105.18 31.9717 105.599 31.9717C106.005 31.9717 106.314 31.8955 106.526 31.7432C106.737 31.5866 106.843 31.3835 106.843 31.1338ZM111.642 24.4624V26.1318H112.854V27.2744H111.642V31.1084C111.642 31.3708 111.693 31.5612 111.794 31.6797C111.9 31.7939 112.086 31.8511 112.353 31.8511C112.531 31.8511 112.711 31.8299 112.893 31.7876V32.981C112.541 33.0783 112.203 33.127 111.877 33.127C110.692 33.127 110.1 32.4731 110.1 31.1655V27.2744H108.97V26.1318H110.1V24.4624H111.642ZM118.142 33C118.074 32.8688 118.015 32.6551 117.964 32.3589C117.473 32.8709 116.873 33.127 116.162 33.127C115.472 33.127 114.909 32.9302 114.473 32.5366C114.037 32.1431 113.819 31.6564 113.819 31.0767C113.819 30.3446 114.09 29.7839 114.632 29.3945C115.178 29.001 115.956 28.8042 116.968 28.8042H117.914V28.3535C117.914 27.998 117.814 27.7145 117.615 27.5029C117.416 27.2871 117.114 27.1792 116.708 27.1792C116.356 27.1792 116.069 27.2681 115.844 27.4458C115.62 27.6193 115.508 27.8415 115.508 28.1123H113.965C113.965 27.7357 114.09 27.3844 114.34 27.0586C114.59 26.7285 114.928 26.4704 115.355 26.2842C115.787 26.098 116.267 26.0049 116.796 26.0049C117.6 26.0049 118.242 26.208 118.72 26.6143C119.198 27.0163 119.443 27.5833 119.456 28.3154V31.4131C119.456 32.0309 119.543 32.5239 119.716 32.8921V33H118.142ZM116.447 31.8892C116.752 31.8892 117.038 31.8151 117.304 31.667C117.575 31.5189 117.778 31.32 117.914 31.0703V29.7754H117.082C116.511 29.7754 116.081 29.8748 115.793 30.0737C115.506 30.2726 115.362 30.554 115.362 30.918C115.362 31.2142 115.459 31.4512 115.654 31.6289C115.853 31.8024 116.117 31.8892 116.447 31.8892ZM123.004 24.4624V26.1318H124.217V27.2744H123.004V31.1084C123.004 31.3708 123.055 31.5612 123.157 31.6797C123.263 31.7939 123.449 31.8511 123.715 31.8511C123.893 31.8511 124.073 31.8299 124.255 31.7876V32.981C123.904 33.0783 123.565 33.127 123.239 33.127C122.054 33.127 121.462 32.4731 121.462 31.1655V27.2744H120.332V26.1318H121.462V24.4624H123.004ZM129.562 32.3271C129.109 32.8604 128.465 33.127 127.632 33.127C126.887 33.127 126.322 32.909 125.937 32.4731C125.556 32.0373 125.366 31.4067 125.366 30.5815V26.1318H126.908V30.5625C126.908 31.4342 127.27 31.8701 127.994 31.8701C128.743 31.8701 129.248 31.6014 129.511 31.064V26.1318H131.053V33H129.6L129.562 32.3271ZM136.474 31.1338C136.474 30.8587 136.36 30.6493 136.131 30.5054C135.907 30.3615 135.533 30.2345 135.008 30.1245C134.483 30.0145 134.045 29.8748 133.694 29.7056C132.924 29.3332 132.539 28.7936 132.539 28.0869C132.539 27.4945 132.788 26.9993 133.288 26.6016C133.787 26.2038 134.422 26.0049 135.192 26.0049C136.013 26.0049 136.675 26.208 137.179 26.6143C137.687 27.0205 137.94 27.5474 137.94 28.1948H136.398C136.398 27.8986 136.288 27.6532 136.068 27.4585C135.848 27.2596 135.556 27.1602 135.192 27.1602C134.853 27.1602 134.576 27.2384 134.36 27.395C134.149 27.5516 134.043 27.7611 134.043 28.0234C134.043 28.2604 134.142 28.4445 134.341 28.5757C134.54 28.7069 134.942 28.8402 135.547 28.9756C136.153 29.1068 136.626 29.2655 136.969 29.4517C137.316 29.6336 137.572 29.8537 137.737 30.1118C137.907 30.37 137.991 30.6831 137.991 31.0513C137.991 31.6691 137.735 32.1706 137.223 32.5557C136.711 32.9365 136.04 33.127 135.211 33.127C134.648 33.127 134.147 33.0254 133.707 32.8223C133.266 32.6191 132.924 32.3398 132.678 31.9844C132.433 31.6289 132.31 31.2459 132.31 30.8354H133.808C133.829 31.1994 133.967 31.4808 134.221 31.6797C134.475 31.8743 134.811 31.9717 135.23 31.9717C135.636 31.9717 135.945 31.8955 136.157 31.7432C136.368 31.5866 136.474 31.3835 136.474 31.1338Z" fill="white"/>
<path d="M58.877 48.3379C58.877 47.7129 58.6556 47.2311 58.2129 46.8926C57.7767 46.554 56.9857 46.2122 55.8398 45.8672C54.694 45.5221 53.7826 45.138 53.1055 44.7148C51.8099 43.901 51.1621 42.8398 51.1621 41.5312C51.1621 40.3854 51.6276 39.4414 52.5586 38.6992C53.4961 37.957 54.7103 37.5859 56.2012 37.5859C57.1908 37.5859 58.0729 37.7682 58.8477 38.1328C59.6224 38.4974 60.2311 39.0182 60.6738 39.6953C61.1165 40.3659 61.3379 41.1113 61.3379 41.9316H58.877C58.877 41.1895 58.6426 40.61 58.1738 40.1934C57.7116 39.7702 57.0475 39.5586 56.1816 39.5586C55.3743 39.5586 54.7461 39.7311 54.2969 40.0762C53.8542 40.4212 53.6328 40.903 53.6328 41.5215C53.6328 42.0423 53.8737 42.4785 54.3555 42.8301C54.8372 43.1751 55.6315 43.5137 56.7383 43.8457C57.8451 44.1712 58.7337 44.5456 59.4043 44.9688C60.0749 45.3854 60.5664 45.8672 60.8789 46.4141C61.1914 46.9544 61.3477 47.5892 61.3477 48.3184C61.3477 49.5033 60.8919 50.4473 59.9805 51.1504C59.0755 51.847 57.8451 52.1953 56.2891 52.1953C55.2604 52.1953 54.3132 52.0065 53.4473 51.6289C52.5879 51.2448 51.9173 50.7174 51.4355 50.0469C50.9603 49.3763 50.7227 48.5951 50.7227 47.7031H53.1934C53.1934 48.5104 53.4603 49.1354 53.9941 49.5781C54.528 50.0208 55.293 50.2422 56.2891 50.2422C57.1484 50.2422 57.793 50.0697 58.2227 49.7246C58.6589 49.373 58.877 48.9108 58.877 48.3379ZM66.9824 48.6016L69.1309 41.4336H71.6602L67.4609 53.6016C66.8164 55.3789 65.7227 56.2676 64.1797 56.2676C63.8346 56.2676 63.4538 56.209 63.0371 56.0918V54.2559L63.4863 54.2852C64.0853 54.2852 64.5345 54.1745 64.834 53.9531C65.14 53.7383 65.3809 53.3737 65.5566 52.8594L65.8984 51.9512L62.1875 41.4336H64.7461L66.9824 48.6016ZM75.2344 41.4336L75.3027 42.6543C76.084 41.7103 77.1094 41.2383 78.3789 41.2383C80.5794 41.2383 81.6992 42.498 81.7383 45.0176V52H79.3652V45.1543C79.3652 44.4837 79.2188 43.9889 78.9258 43.6699C78.6393 43.3444 78.1673 43.1816 77.5098 43.1816C76.5527 43.1816 75.8398 43.6146 75.3711 44.4805V52H72.998V41.4336H75.2344ZM88.5059 50.3008C89.0983 50.3008 89.5898 50.1283 89.9805 49.7832C90.3711 49.4382 90.5794 49.0117 90.6055 48.5039H92.8418C92.8158 49.1615 92.6107 49.7767 92.2266 50.3496C91.8424 50.916 91.3216 51.3652 90.6641 51.6973C90.0065 52.0293 89.2969 52.1953 88.5352 52.1953C87.0573 52.1953 85.8854 51.7168 85.0195 50.7598C84.1536 49.8027 83.7207 48.4811 83.7207 46.7949V46.5508C83.7207 44.9427 84.1504 43.6569 85.0098 42.6934C85.8691 41.7233 87.041 41.2383 88.5254 41.2383C89.7819 41.2383 90.804 41.6061 91.5918 42.3418C92.3861 43.071 92.8027 44.0312 92.8418 45.2227H90.6055C90.5794 44.6172 90.3711 44.1191 89.9805 43.7285C89.5964 43.3379 89.1048 43.1426 88.5059 43.1426C87.7376 43.1426 87.1452 43.4225 86.7285 43.9824C86.3118 44.5358 86.1003 45.3789 86.0938 46.5117V46.8926C86.0938 48.0384 86.2988 48.8945 86.709 49.4609C87.1257 50.0208 87.7246 50.3008 88.5059 50.3008ZM96.9727 42.5859C97.7474 41.6875 98.7272 41.2383 99.9121 41.2383C102.165 41.2383 103.307 42.5241 103.34 45.0957V52H100.967V45.1836C100.967 44.4544 100.807 43.9401 100.488 43.6406C100.176 43.3346 99.7135 43.1816 99.1016 43.1816C98.151 43.1816 97.4414 43.6048 96.9727 44.4512V52H94.5996V37H96.9727V42.5859ZM111.279 43.6016C110.967 43.5495 110.645 43.5234 110.312 43.5234C109.225 43.5234 108.493 43.9401 108.115 44.7734V52H105.742V41.4336H108.008L108.066 42.6152C108.639 41.6973 109.434 41.2383 110.449 41.2383C110.788 41.2383 111.068 41.2839 111.289 41.375L111.279 43.6016ZM111.982 46.6191C111.982 45.584 112.188 44.653 112.598 43.8262C113.008 42.9928 113.584 42.3548 114.326 41.9121C115.068 41.4629 115.921 41.2383 116.885 41.2383C118.311 41.2383 119.466 41.6973 120.352 42.6152C121.243 43.5332 121.725 44.7507 121.797 46.2676L121.807 46.8242C121.807 47.8659 121.605 48.7969 121.201 49.6172C120.804 50.4375 120.231 51.0723 119.482 51.5215C118.74 51.9707 117.881 52.1953 116.904 52.1953C115.413 52.1953 114.219 51.7005 113.32 50.7109C112.428 49.7148 111.982 48.39 111.982 46.7363V46.6191ZM114.355 46.8242C114.355 47.9115 114.58 48.7643 115.029 49.3828C115.479 49.9948 116.104 50.3008 116.904 50.3008C117.705 50.3008 118.327 49.9883 118.77 49.3633C119.219 48.7383 119.443 47.8236 119.443 46.6191C119.443 45.5514 119.212 44.7051 118.75 44.0801C118.294 43.4551 117.673 43.1426 116.885 43.1426C116.11 43.1426 115.495 43.4518 115.039 44.0703C114.583 44.6823 114.355 45.6003 114.355 46.8242ZM126.016 41.4336L126.084 42.6543C126.865 41.7103 127.891 41.2383 129.16 41.2383C131.361 41.2383 132.48 42.498 132.52 45.0176V52H130.146V45.1543C130.146 44.4837 130 43.9889 129.707 43.6699C129.421 43.3444 128.949 43.1816 128.291 43.1816C127.334 43.1816 126.621 43.6146 126.152 44.4805V52H123.779V41.4336H126.016ZM137.471 52H135.098V41.4336H137.471V52ZM134.951 38.6895C134.951 38.3249 135.065 38.0221 135.293 37.7812C135.527 37.5404 135.859 37.4199 136.289 37.4199C136.719 37.4199 137.051 37.5404 137.285 37.7812C137.52 38.0221 137.637 38.3249 137.637 38.6895C137.637 39.0475 137.52 39.347 137.285 39.5879C137.051 39.8223 136.719 39.9395 136.289 39.9395C135.859 39.9395 135.527 39.8223 135.293 39.5879C135.065 39.347 134.951 39.0475 134.951 38.6895ZM142.598 50.1055H148.223V52H139.648V50.4473L145.01 43.3477H139.746V41.4336H148.018V42.9375L142.598 50.1055ZM152.646 52H150.273V41.4336H152.646V52ZM150.127 38.6895C150.127 38.3249 150.241 38.0221 150.469 37.7812C150.703 37.5404 151.035 37.4199 151.465 37.4199C151.895 37.4199 152.227 37.5404 152.461 37.7812C152.695 38.0221 152.812 38.3249 152.812 38.6895C152.812 39.0475 152.695 39.347 152.461 39.5879C152.227 39.8223 151.895 39.9395 151.465 39.9395C151.035 39.9395 150.703 39.8223 150.469 39.5879C150.241 39.347 150.127 39.0475 150.127 38.6895ZM157.441 41.4336L157.51 42.6543C158.291 41.7103 159.316 41.2383 160.586 41.2383C162.786 41.2383 163.906 42.498 163.945 45.0176V52H161.572V45.1543C161.572 44.4837 161.426 43.9889 161.133 43.6699C160.846 43.3444 160.374 43.1816 159.717 43.1816C158.76 43.1816 158.047 43.6146 157.578 44.4805V52H155.205V41.4336H157.441ZM165.957 46.6387C165.957 44.998 166.341 43.6895 167.109 42.7129C167.884 41.7298 168.91 41.2383 170.186 41.2383C171.39 41.2383 172.337 41.6582 173.027 42.498L173.135 41.4336H175.273V51.6777C175.273 53.0645 174.84 54.1582 173.975 54.959C173.115 55.7598 171.953 56.1602 170.488 56.1602C169.714 56.1602 168.955 55.9974 168.213 55.6719C167.477 55.3529 166.917 54.9329 166.533 54.4121L167.656 52.9863C168.385 53.8522 169.284 54.2852 170.352 54.2852C171.139 54.2852 171.761 54.0703 172.217 53.6406C172.673 53.2174 172.9 52.5924 172.9 51.7656V51.0527C172.217 51.8145 171.305 52.1953 170.166 52.1953C168.929 52.1953 167.917 51.7038 167.129 50.7207C166.348 49.7376 165.957 48.377 165.957 46.6387ZM168.32 46.8438C168.32 47.9049 168.535 48.7415 168.965 49.3535C169.401 49.959 170.003 50.2617 170.771 50.2617C171.729 50.2617 172.438 49.8516 172.9 49.0312V44.3828C172.451 43.582 171.748 43.1816 170.791 43.1816C170.01 43.1816 169.401 43.4909 168.965 44.1094C168.535 44.7279 168.32 45.6393 168.32 46.8438Z" fill="white"/>
<path d="M20.9395 83V73.7578H24.1069C25.1522 73.7578 25.9478 73.9673 26.4937 74.3862C27.0396 74.8052 27.3125 75.4294 27.3125 76.2588C27.3125 76.682 27.1982 77.0628 26.9697 77.4014C26.7412 77.7399 26.4069 78.0023 25.9668 78.1885C26.4661 78.3239 26.8512 78.5799 27.1221 78.9565C27.3971 79.3289 27.5347 79.7775 27.5347 80.3022C27.5347 81.1698 27.2554 81.8363 26.6968 82.3018C26.1424 82.7673 25.3468 83 24.3101 83H20.9395ZM22.5454 78.8296V81.7178H24.3291C24.8327 81.7178 25.2262 81.5929 25.5098 81.3433C25.7933 81.0936 25.9351 80.7466 25.9351 80.3022C25.9351 79.3416 25.4442 78.8507 24.4624 78.8296H22.5454ZM22.5454 77.6489H24.1196C24.619 77.6489 25.0083 77.5368 25.2876 77.3125C25.5711 77.084 25.7129 76.7624 25.7129 76.3477C25.7129 75.8906 25.5817 75.5605 25.3193 75.3574C25.0612 75.1543 24.6571 75.0527 24.1069 75.0527H22.5454V77.6489ZM30.6323 83H29.0898V73.25H30.6323V83ZM32.0288 79.5024C32.0288 78.8296 32.1621 78.2244 32.4287 77.687C32.6953 77.1453 33.0698 76.7306 33.5522 76.4429C34.0347 76.1509 34.589 76.0049 35.2153 76.0049C36.1421 76.0049 36.8932 76.3032 37.4688 76.8999C38.0485 77.4966 38.3617 78.2879 38.4082 79.2739L38.4146 79.6357C38.4146 80.3128 38.2834 80.918 38.021 81.4512C37.7629 81.9844 37.3905 82.397 36.9038 82.689C36.4214 82.981 35.8628 83.127 35.228 83.127C34.259 83.127 33.4824 82.8053 32.8984 82.1621C32.3187 81.5146 32.0288 80.6535 32.0288 79.5786V79.5024ZM33.5713 79.6357C33.5713 80.3424 33.7173 80.8968 34.0093 81.2988C34.3013 81.6966 34.7075 81.8955 35.228 81.8955C35.7485 81.8955 36.1527 81.6924 36.4404 81.2861C36.7324 80.8799 36.8784 80.2853 36.8784 79.5024C36.8784 78.8084 36.7282 78.2583 36.4277 77.8521C36.1315 77.4458 35.7274 77.2427 35.2153 77.2427C34.7118 77.2427 34.3118 77.4437 34.0156 77.8457C33.7194 78.2435 33.5713 78.8402 33.5713 79.6357ZM42.5405 81.8955C42.9256 81.8955 43.2451 81.7834 43.499 81.5591C43.7529 81.3348 43.8883 81.0576 43.9053 80.7275H45.3589C45.342 81.1549 45.2087 81.5549 44.959 81.9272C44.7093 82.2954 44.3708 82.5874 43.9434 82.8032C43.516 83.019 43.0547 83.127 42.5596 83.127C41.599 83.127 40.8372 82.8159 40.2744 82.1938C39.7116 81.5718 39.4302 80.7127 39.4302 79.6167V79.458C39.4302 78.4128 39.7095 77.577 40.2681 76.9507C40.8267 76.3201 41.5884 76.0049 42.5532 76.0049C43.37 76.0049 44.0343 76.244 44.5464 76.7222C45.0627 77.1961 45.3335 77.8203 45.3589 78.5947H43.9053C43.8883 78.2012 43.7529 77.8774 43.499 77.6235C43.2493 77.3696 42.9299 77.2427 42.5405 77.2427C42.0412 77.2427 41.6561 77.4246 41.3853 77.7886C41.1144 78.1483 40.9769 78.6963 40.9727 79.4326V79.6802C40.9727 80.425 41.106 80.9814 41.3726 81.3496C41.6434 81.7135 42.0327 81.8955 42.5405 81.8955ZM48.7549 80.0547L48.0693 80.7593V83H46.5269V73.25H48.0693V78.874L48.5518 78.271L50.4497 76.1318H52.3032L49.7515 78.9946L52.5762 83H50.7925L48.7549 80.0547ZM57.1655 81.1338C57.1655 80.8587 57.0513 80.6493 56.8228 80.5054C56.5985 80.3615 56.224 80.2345 55.6992 80.1245C55.1745 80.0145 54.7365 79.8748 54.3853 79.7056C53.6151 79.3332 53.23 78.7936 53.23 78.0869C53.23 77.4945 53.4797 76.9993 53.979 76.6016C54.4784 76.2038 55.1131 76.0049 55.8833 76.0049C56.7043 76.0049 57.3665 76.208 57.8701 76.6143C58.3779 77.0205 58.6318 77.5474 58.6318 78.1948H57.0894C57.0894 77.8986 56.9793 77.6532 56.7593 77.4585C56.5392 77.2596 56.2472 77.1602 55.8833 77.1602C55.5448 77.1602 55.2676 77.2384 55.0518 77.395C54.8402 77.5516 54.7344 77.7611 54.7344 78.0234C54.7344 78.2604 54.8338 78.4445 55.0327 78.5757C55.2316 78.7069 55.6336 78.8402 56.2388 78.9756C56.8439 79.1068 57.3179 79.2655 57.6606 79.4517C58.0076 79.6336 58.2637 79.8537 58.4287 80.1118C58.598 80.37 58.6826 80.6831 58.6826 81.0513C58.6826 81.6691 58.4266 82.1706 57.9146 82.5557C57.4025 82.9365 56.7318 83.127 55.9023 83.127C55.3395 83.127 54.8381 83.0254 54.3979 82.8223C53.9578 82.6191 53.6151 82.3398 53.3696 81.9844C53.1242 81.6289 53.0015 81.2459 53.0015 80.8354H54.4995C54.5207 81.1994 54.6582 81.4808 54.9121 81.6797C55.166 81.8743 55.5024 81.9717 55.9214 81.9717C56.3276 81.9717 56.6366 81.8955 56.8481 81.7432C57.0597 81.5866 57.1655 81.3835 57.1655 81.1338ZM66.8647 77.541C66.6616 77.5072 66.4521 77.4902 66.2363 77.4902C65.5296 77.4902 65.0535 77.7611 64.8081 78.3027V83H63.2656V76.1318H64.7383L64.7764 76.8999C65.1488 76.3032 65.665 76.0049 66.3252 76.0049C66.5452 76.0049 66.7272 76.0345 66.8711 76.0938L66.8647 77.541ZM70.7368 83.127C69.7593 83.127 68.9658 82.8201 68.3564 82.2065C67.7513 81.5887 67.4487 80.7677 67.4487 79.7437V79.5532C67.4487 78.8677 67.5799 78.2562 67.8423 77.7188C68.1089 77.1771 68.4813 76.756 68.9595 76.4556C69.4377 76.1551 69.9709 76.0049 70.5591 76.0049C71.4943 76.0049 72.2158 76.3032 72.7236 76.8999C73.2357 77.4966 73.4917 78.3408 73.4917 79.4326V80.0547H69.0039C69.0505 80.6217 69.2388 81.0703 69.5688 81.4004C69.9032 81.7305 70.3221 81.8955 70.8257 81.8955C71.5324 81.8955 72.1079 81.6099 72.5522 81.0386L73.3838 81.832C73.1087 82.2425 72.7406 82.562 72.2793 82.7905C71.8223 83.0148 71.3081 83.127 70.7368 83.127ZM70.5527 77.2427C70.1296 77.2427 69.7868 77.3908 69.5244 77.687C69.2663 77.9832 69.1012 78.3958 69.0293 78.9248H71.9683V78.8105C71.9344 78.2943 71.7969 77.9049 71.5557 77.6426C71.3145 77.376 70.9801 77.2427 70.5527 77.2427ZM76.145 76.1318L76.1895 76.8491C76.6719 76.2863 77.332 76.0049 78.1699 76.0049C79.0882 76.0049 79.7166 76.3561 80.0552 77.0586C80.5545 76.3561 81.257 76.0049 82.1626 76.0049C82.9201 76.0049 83.4829 76.2144 83.8511 76.6333C84.2235 77.0522 84.4139 77.6701 84.4224 78.4868V83H82.8799V78.5312C82.8799 78.0954 82.7847 77.7759 82.5942 77.5728C82.4038 77.3696 82.0885 77.2681 81.6484 77.2681C81.2972 77.2681 81.0094 77.3633 80.7852 77.5537C80.5651 77.7399 80.4106 77.9854 80.3218 78.29L80.3281 83H78.7856V78.4805C78.7645 77.6722 78.3519 77.2681 77.5479 77.2681C76.93 77.2681 76.492 77.5199 76.2339 78.0234V83H74.6914V76.1318H76.145ZM90.1099 83C90.0422 82.8688 89.9829 82.6551 89.9321 82.3589C89.4412 82.8709 88.8403 83.127 88.1294 83.127C87.4396 83.127 86.8768 82.9302 86.4409 82.5366C86.005 82.1431 85.7871 81.6564 85.7871 81.0767C85.7871 80.3446 86.0579 79.7839 86.5996 79.3945C87.1455 79.001 87.9242 78.8042 88.9355 78.8042H89.8813V78.3535C89.8813 77.998 89.7819 77.7145 89.583 77.5029C89.3841 77.2871 89.0815 77.1792 88.6753 77.1792C88.3241 77.1792 88.0363 77.2681 87.812 77.4458C87.5877 77.6193 87.4756 77.8415 87.4756 78.1123H85.9331C85.9331 77.7357 86.0579 77.3844 86.3076 77.0586C86.5573 76.7285 86.8958 76.4704 87.3232 76.2842C87.7549 76.098 88.2352 76.0049 88.7642 76.0049C89.5682 76.0049 90.2093 76.208 90.6875 76.6143C91.1657 77.0163 91.4111 77.5833 91.4238 78.3154V81.4131C91.4238 82.0309 91.5106 82.5239 91.6841 82.8921V83H90.1099ZM88.415 81.8892C88.7197 81.8892 89.0054 81.8151 89.272 81.667C89.5428 81.5189 89.7459 81.32 89.8813 81.0703V79.7754H89.0498C88.4785 79.7754 88.049 79.8748 87.7612 80.0737C87.4735 80.2726 87.3296 80.554 87.3296 80.918C87.3296 81.2142 87.4269 81.4512 87.6216 81.6289C87.8205 81.8024 88.085 81.8892 88.415 81.8892ZM94.6802 83H93.1377V76.1318H94.6802V83ZM93.0425 74.3481C93.0425 74.1112 93.1165 73.9144 93.2646 73.7578C93.417 73.6012 93.6328 73.5229 93.9121 73.5229C94.1914 73.5229 94.4072 73.6012 94.5596 73.7578C94.7119 73.9144 94.7881 74.1112 94.7881 74.3481C94.7881 74.5809 94.7119 74.7756 94.5596 74.9321C94.4072 75.0845 94.1914 75.1606 93.9121 75.1606C93.6328 75.1606 93.417 75.0845 93.2646 74.9321C93.1165 74.7756 93.0425 74.5809 93.0425 74.3481ZM97.7969 76.1318L97.8413 76.9253C98.3491 76.3117 99.0156 76.0049 99.8408 76.0049C101.271 76.0049 101.999 76.8237 102.024 78.4614V83H100.482V78.5503C100.482 78.1144 100.387 77.7928 100.196 77.5854C100.01 77.3739 99.7033 77.2681 99.2759 77.2681C98.6538 77.2681 98.1904 77.5495 97.8857 78.1123V83H96.3433V76.1318H97.7969ZM105.243 83H103.7V76.1318H105.243V83ZM103.605 74.3481C103.605 74.1112 103.679 73.9144 103.827 73.7578C103.979 73.6012 104.195 73.5229 104.475 73.5229C104.754 73.5229 104.97 73.6012 105.122 73.7578C105.274 73.9144 105.351 74.1112 105.351 74.3481C105.351 74.5809 105.274 74.7756 105.122 74.9321C104.97 75.0845 104.754 75.1606 104.475 75.1606C104.195 75.1606 103.979 75.0845 103.827 74.9321C103.679 74.7756 103.605 74.5809 103.605 74.3481ZM108.359 76.1318L108.404 76.9253C108.912 76.3117 109.578 76.0049 110.403 76.0049C111.834 76.0049 112.562 76.8237 112.587 78.4614V83H111.044V78.5503C111.044 78.1144 110.949 77.7928 110.759 77.5854C110.573 77.3739 110.266 77.2681 109.838 77.2681C109.216 77.2681 108.753 77.5495 108.448 78.1123V83H106.906V76.1318H108.359ZM113.895 79.5151C113.895 78.4487 114.144 77.5981 114.644 76.9634C115.147 76.3244 115.814 76.0049 116.643 76.0049C117.426 76.0049 118.042 76.2778 118.49 76.8237L118.56 76.1318H119.95V82.7905C119.95 83.6919 119.669 84.4028 119.106 84.9233C118.547 85.4438 117.792 85.7041 116.84 85.7041C116.336 85.7041 115.843 85.5983 115.361 85.3867C114.883 85.1794 114.519 84.9064 114.269 84.5679L114.999 83.6411C115.473 84.2039 116.057 84.4854 116.751 84.4854C117.263 84.4854 117.667 84.3457 117.963 84.0664C118.26 83.7913 118.408 83.3851 118.408 82.8477V82.3843C117.963 82.8794 117.371 83.127 116.63 83.127C115.826 83.127 115.168 82.8075 114.656 82.1685C114.148 81.5295 113.895 80.645 113.895 79.5151ZM115.431 79.6484C115.431 80.3382 115.57 80.882 115.85 81.2798C116.133 81.6733 116.525 81.8701 117.024 81.8701C117.646 81.8701 118.107 81.6035 118.408 81.0703V78.0488C118.116 77.5283 117.659 77.2681 117.037 77.2681C116.529 77.2681 116.133 77.4691 115.85 77.8711C115.57 78.2731 115.431 78.8656 115.431 79.6484Z" fill="white"/>
<path d="M245.691 73.7134V74.9893H245.5C244.637 75.002 243.947 75.2389 243.431 75.7002C242.915 76.1615 242.608 76.8153 242.511 77.6616C243.006 77.1411 243.639 76.8809 244.409 76.8809C245.225 76.8809 245.869 77.1686 246.338 77.7441C246.812 78.3197 247.049 79.0623 247.049 79.9722C247.049 80.9116 246.772 81.6733 246.218 82.2573C245.668 82.8371 244.944 83.127 244.047 83.127C243.124 83.127 242.375 82.7863 241.8 82.105C241.229 81.4237 240.943 80.5308 240.943 79.4263V78.8994C240.943 77.2786 241.336 76.0091 242.124 75.0908C242.915 74.1725 244.051 73.7134 245.532 73.7134H245.691ZM244.034 78.125C243.696 78.125 243.385 78.2202 243.101 78.4106C242.822 78.6011 242.617 78.855 242.485 79.1724V79.6421C242.485 80.3276 242.629 80.8735 242.917 81.2798C243.205 81.6818 243.577 81.8828 244.034 81.8828C244.491 81.8828 244.853 81.7114 245.12 81.3687C245.386 81.0259 245.52 80.5752 245.52 80.0166C245.52 79.458 245.384 79.0031 245.113 78.6519C244.842 78.3006 244.483 78.125 244.034 78.125ZM254.432 74.6147L250.737 83H249.119L252.807 74.9956H248.027V73.7578H254.432V74.6147ZM255.987 85.082L255.155 84.5869C255.401 84.2018 255.568 83.8654 255.657 83.5776C255.75 83.2941 255.799 83.0042 255.803 82.708V81.5083H257.193L257.187 82.6191C257.182 83.0677 257.068 83.5163 256.844 83.9648C256.624 84.4176 256.338 84.79 255.987 85.082ZM264.677 74.6147L260.982 83H259.364L263.052 74.9956H258.272V73.7578H264.677V74.6147ZM272.065 74.6147L268.371 83H266.752L270.44 74.9956H265.661V73.7578H272.065V74.6147ZM273.716 78.417L274.217 73.7578H279.181V75.0908H275.5L275.246 77.2998C275.673 77.0544 276.155 76.9316 276.693 76.9316C277.573 76.9316 278.257 77.2131 278.743 77.7759C279.234 78.3387 279.479 79.0962 279.479 80.0483C279.479 80.9878 279.209 81.7368 278.667 82.2954C278.125 82.8498 277.383 83.127 276.439 83.127C275.593 83.127 274.89 82.8879 274.332 82.4097C273.777 81.9272 273.477 81.2925 273.43 80.5054H274.922C274.981 80.9539 275.142 81.2988 275.404 81.54C275.667 81.777 276.009 81.8955 276.433 81.8955C276.907 81.8955 277.275 81.7262 277.537 81.3877C277.804 81.0492 277.937 80.5879 277.937 80.0039C277.937 79.4411 277.791 78.9967 277.499 78.6709C277.207 78.3408 276.805 78.1758 276.293 78.1758C276.014 78.1758 275.777 78.2139 275.582 78.29C275.387 78.362 275.176 78.5059 274.947 78.7217L273.716 78.417Z" fill="white"/>
<rect opacity="0.2" x="20" y="92" width="260" height="8" rx="4" fill="white"/>
<rect x="20" y="92" width="171" height="8" rx="4" fill="#FA6800"/>
</svg>
