<svg width="12" height="27" viewBox="0 0 12 27" fill="none" xmlns="http://www.w3.org/2000/svg">
<path d="M1.09102 27C1.01084 27 0.930116 26.9827 0.853755 26.946C0.606672 26.8272 0.487221 26.5464 0.573945 26.2888L4.698 14.04H0.545582C0.363406 14.04 0.193229 13.9498 0.0917779 13.7997C-0.00967356 13.6496 -0.0282185 13.459 0.0421431 13.2926L5.49652 0.33264C5.58107 0.13122 5.77961 0 5.99996 0H11.1816C11.3665 0 11.5389 0.09288 11.6392 0.24624C11.7402 0.40014 11.7549 0.59346 11.6796 0.76032L7.38701 10.26H11.4543C11.6545 10.26 11.8389 10.3691 11.9343 10.543C12.0298 10.7174 12.0205 10.9296 11.9109 11.0954L1.54755 26.7554C1.44337 26.9131 1.26992 27 1.09102 27Z" fill="#FA6800"/>
</svg>
