<svg width="97" height="97" viewBox="0 0 97 97" fill="none" xmlns="http://www.w3.org/2000/svg">
<rect x="-12" y="-12" width="300" height="120" fill="#D8D8D8" fill-opacity="0.01"/>
<path d="M16.091 41C16.0108 41 15.9301 40.9827 15.8538 40.946C15.6067 40.8272 15.4872 40.5464 15.5739 40.2888L19.698 28.04H15.5456C15.3634 28.04 15.1932 27.9498 15.0918 27.7997C14.9903 27.6496 14.9718 27.459 15.0421 27.2926L20.4965 14.3326C20.5811 14.1312 20.7796 14 21 14H26.1816C26.3665 14 26.5389 14.0929 26.6392 14.2462C26.7402 14.4001 26.7549 14.5935 26.6796 14.7603L22.387 24.26H26.4543C26.6545 24.26 26.8389 24.3691 26.9343 24.543C27.0298 24.7174 27.0205 24.9296 26.9109 25.0954L16.5476 40.7554C16.4434 40.9131 16.2699 41 16.091 41Z" fill="#FA6800"/>
<path opacity="0.5" d="M46.271 21H44.665L40.5454 14.4429V21H38.9395V11.7578H40.5454L44.6777 18.3403V11.7578H46.271V21ZM51.0444 21.127C50.0669 21.127 49.2734 20.8201 48.6641 20.2065C48.0589 19.5887 47.7563 18.7677 47.7563 17.7437V17.5532C47.7563 16.8677 47.8875 16.2562 48.1499 15.7188C48.4165 15.1771 48.7889 14.756 49.2671 14.4556C49.7453 14.1551 50.2785 14.0049 50.8667 14.0049C51.8019 14.0049 52.5234 14.3032 53.0312 14.8999C53.5433 15.4966 53.7993 16.3408 53.7993 17.4326V18.0547H49.3115C49.3581 18.6217 49.5464 19.0703 49.8765 19.4004C50.2108 19.7305 50.6297 19.8955 51.1333 19.8955C51.84 19.8955 52.4155 19.6099 52.8599 19.0386L53.6914 19.832C53.4163 20.2425 53.0482 20.562 52.5869 20.7905C52.1299 21.0148 51.6157 21.127 51.0444 21.127ZM50.8604 15.2427C50.4372 15.2427 50.0944 15.3908 49.832 15.687C49.5739 15.9832 49.4089 16.3958 49.3369 16.9248H52.2759V16.8105C52.242 16.2943 52.1045 15.9049 51.8633 15.6426C51.6221 15.376 51.2878 15.2427 50.8604 15.2427ZM56.9351 12.4624V14.1318H58.1475V15.2744H56.9351V19.1084C56.9351 19.3708 56.9858 19.5612 57.0874 19.6797C57.1932 19.7939 57.3794 19.8511 57.646 19.8511C57.8237 19.8511 58.0036 19.8299 58.1855 19.7876V20.981C57.8343 21.0783 57.4958 21.127 57.1699 21.127C55.985 21.127 55.3926 20.4731 55.3926 19.1655V15.2744H54.2627V14.1318H55.3926V12.4624H56.9351ZM65.3647 18.8735L66.4565 14.1318H67.9609L66.0884 21H64.8188L63.3462 16.2837L61.8989 21H60.6294L58.7505 14.1318H60.2549L61.3657 18.8228L62.7749 14.1318H63.9365L65.3647 18.8735ZM68.7036 17.5024C68.7036 16.8296 68.8369 16.2244 69.1035 15.687C69.3701 15.1453 69.7446 14.7306 70.2271 14.4429C70.7095 14.1509 71.2638 14.0049 71.8901 14.0049C72.8169 14.0049 73.568 14.3032 74.1436 14.8999C74.7233 15.4966 75.0365 16.2879 75.083 17.2739L75.0894 17.6357C75.0894 18.3128 74.9582 18.918 74.6958 19.4512C74.4377 19.9844 74.0653 20.397 73.5786 20.689C73.0962 20.981 72.5376 21.127 71.9028 21.127C70.9338 21.127 70.1572 20.8053 69.5732 20.1621C68.9935 19.5146 68.7036 18.6535 68.7036 17.5786V17.5024ZM70.2461 17.6357C70.2461 18.3424 70.3921 18.8968 70.6841 19.2988C70.9761 19.6966 71.3823 19.8955 71.9028 19.8955C72.4233 19.8955 72.8275 19.6924 73.1152 19.2861C73.4072 18.8799 73.5532 18.2853 73.5532 17.5024C73.5532 16.8084 73.403 16.2583 73.1025 15.8521C72.8063 15.4458 72.4022 15.2427 71.8901 15.2427C71.3866 15.2427 70.9867 15.4437 70.6904 15.8457C70.3942 16.2435 70.2461 16.8402 70.2461 17.6357ZM79.9897 15.541C79.7866 15.5072 79.5771 15.4902 79.3613 15.4902C78.6546 15.4902 78.1785 15.7611 77.9331 16.3027V21H76.3906V14.1318H77.8633L77.9014 14.8999C78.2738 14.3032 78.79 14.0049 79.4502 14.0049C79.6702 14.0049 79.8522 14.0345 79.9961 14.0938L79.9897 15.541ZM83.1953 18.0547L82.5098 18.7593V21H80.9673V11.25H82.5098V16.874L82.9922 16.271L84.8901 14.1318H86.7437L84.1919 16.9946L87.0166 21H85.2329L83.1953 18.0547ZM94.8433 19.1338C94.8433 18.8587 94.729 18.6493 94.5005 18.5054C94.2762 18.3615 93.9017 18.2345 93.377 18.1245C92.8522 18.0145 92.4142 17.8748 92.063 17.7056C91.2928 17.3332 90.9077 16.7936 90.9077 16.0869C90.9077 15.4945 91.1574 14.9993 91.6567 14.6016C92.1561 14.2038 92.7909 14.0049 93.561 14.0049C94.382 14.0049 95.0443 14.208 95.5479 14.6143C96.0557 15.0205 96.3096 15.5474 96.3096 16.1948H94.7671C94.7671 15.8986 94.6571 15.6532 94.437 15.4585C94.217 15.2596 93.925 15.1602 93.561 15.1602C93.2225 15.1602 92.9453 15.2384 92.7295 15.395C92.5179 15.5516 92.4121 15.7611 92.4121 16.0234C92.4121 16.2604 92.5116 16.4445 92.7104 16.5757C92.9093 16.7069 93.3114 16.8402 93.9165 16.9756C94.5216 17.1068 94.9956 17.2655 95.3384 17.4517C95.6854 17.6336 95.9414 17.8537 96.1064 18.1118C96.2757 18.37 96.3604 18.6831 96.3604 19.0513C96.3604 19.6691 96.1043 20.1706 95.5923 20.5557C95.0802 20.9365 94.4095 21.127 93.5801 21.127C93.0173 21.127 92.5158 21.0254 92.0757 20.8223C91.6356 20.6191 91.2928 20.3398 91.0474 19.9844C90.8019 19.6289 90.6792 19.2459 90.6792 18.8354H92.1772C92.1984 19.1994 92.3359 19.4808 92.5898 19.6797C92.8438 19.8743 93.1802 19.9717 93.5991 19.9717C94.0054 19.9717 94.3143 19.8955 94.5259 19.7432C94.7375 19.5866 94.8433 19.3835 94.8433 19.1338ZM99.6421 12.4624V14.1318H100.854V15.2744H99.6421V19.1084C99.6421 19.3708 99.6929 19.5612 99.7944 19.6797C99.9002 19.7939 100.086 19.8511 100.353 19.8511C100.531 19.8511 100.711 19.8299 100.893 19.7876V20.981C100.541 21.0783 100.203 21.127 99.877 21.127C98.6921 21.127 98.0996 20.4731 98.0996 19.1655V15.2744H96.9697V14.1318H98.0996V12.4624H99.6421ZM106.142 21C106.074 20.8688 106.015 20.6551 105.964 20.3589C105.473 20.8709 104.873 21.127 104.162 21.127C103.472 21.127 102.909 20.9302 102.473 20.5366C102.037 20.1431 101.819 19.6564 101.819 19.0767C101.819 18.3446 102.09 17.7839 102.632 17.3945C103.178 17.001 103.956 16.8042 104.968 16.8042H105.914V16.3535C105.914 15.998 105.814 15.7145 105.615 15.5029C105.416 15.2871 105.114 15.1792 104.708 15.1792C104.356 15.1792 104.069 15.2681 103.844 15.4458C103.62 15.6193 103.508 15.8415 103.508 16.1123H101.965C101.965 15.7357 102.09 15.3844 102.34 15.0586C102.59 14.7285 102.928 14.4704 103.355 14.2842C103.787 14.098 104.267 14.0049 104.796 14.0049C105.6 14.0049 106.242 14.208 106.72 14.6143C107.198 15.0163 107.443 15.5833 107.456 16.3154V19.4131C107.456 20.0309 107.543 20.5239 107.716 20.8921V21H106.142ZM104.447 19.8892C104.752 19.8892 105.038 19.8151 105.304 19.667C105.575 19.5189 105.778 19.32 105.914 19.0703V17.7754H105.082C104.511 17.7754 104.081 17.8748 103.793 18.0737C103.506 18.2726 103.362 18.554 103.362 18.918C103.362 19.2142 103.459 19.4512 103.654 19.6289C103.853 19.8024 104.117 19.8892 104.447 19.8892ZM111.004 12.4624V14.1318H112.217V15.2744H111.004V19.1084C111.004 19.3708 111.055 19.5612 111.157 19.6797C111.263 19.7939 111.449 19.8511 111.715 19.8511C111.893 19.8511 112.073 19.8299 112.255 19.7876V20.981C111.904 21.0783 111.565 21.127 111.239 21.127C110.054 21.127 109.462 20.4731 109.462 19.1655V15.2744H108.332V14.1318H109.462V12.4624H111.004ZM117.562 20.3271C117.109 20.8604 116.465 21.127 115.632 21.127C114.887 21.127 114.322 20.909 113.937 20.4731C113.556 20.0373 113.366 19.4067 113.366 18.5815V14.1318H114.908V18.5625C114.908 19.4342 115.27 19.8701 115.994 19.8701C116.743 19.8701 117.248 19.6014 117.511 19.064V14.1318H119.053V21H117.6L117.562 20.3271ZM124.474 19.1338C124.474 18.8587 124.36 18.6493 124.131 18.5054C123.907 18.3615 123.533 18.2345 123.008 18.1245C122.483 18.0145 122.045 17.8748 121.694 17.7056C120.924 17.3332 120.539 16.7936 120.539 16.0869C120.539 15.4945 120.788 14.9993 121.288 14.6016C121.787 14.2038 122.422 14.0049 123.192 14.0049C124.013 14.0049 124.675 14.208 125.179 14.6143C125.687 15.0205 125.94 15.5474 125.94 16.1948H124.398C124.398 15.8986 124.288 15.6532 124.068 15.4585C123.848 15.2596 123.556 15.1602 123.192 15.1602C122.853 15.1602 122.576 15.2384 122.36 15.395C122.149 15.5516 122.043 15.7611 122.043 16.0234C122.043 16.2604 122.142 16.4445 122.341 16.5757C122.54 16.7069 122.942 16.8402 123.547 16.9756C124.153 17.1068 124.626 17.2655 124.969 17.4517C125.316 17.6336 125.572 17.8537 125.737 18.1118C125.907 18.37 125.991 18.6831 125.991 19.0513C125.991 19.6691 125.735 20.1706 125.223 20.5557C124.711 20.9365 124.04 21.127 123.211 21.127C122.648 21.127 122.147 21.0254 121.707 20.8223C121.266 20.6191 120.924 20.3398 120.678 19.9844C120.433 19.6289 120.31 19.2459 120.31 18.8354H121.808C121.829 19.1994 121.967 19.4808 122.221 19.6797C122.475 19.8743 122.811 19.9717 123.23 19.9717C123.636 19.9717 123.945 19.8955 124.157 19.7432C124.368 19.5866 124.474 19.3835 124.474 19.1338Z" fill="white"/>
<path d="M46.877 36.3379C46.877 35.7129 46.6556 35.2311 46.2129 34.8926C45.7767 34.554 44.9857 34.2122 43.8398 33.8672C42.694 33.5221 41.7826 33.138 41.1055 32.7148C39.8099 31.901 39.1621 30.8398 39.1621 29.5312C39.1621 28.3854 39.6276 27.4414 40.5586 26.6992C41.4961 25.957 42.7103 25.5859 44.2012 25.5859C45.1908 25.5859 46.0729 25.7682 46.8477 26.1328C47.6224 26.4974 48.2311 27.0182 48.6738 27.6953C49.1165 28.3659 49.3379 29.1113 49.3379 29.9316H46.877C46.877 29.1895 46.6426 28.61 46.1738 28.1934C45.7116 27.7702 45.0475 27.5586 44.1816 27.5586C43.3743 27.5586 42.7461 27.7311 42.2969 28.0762C41.8542 28.4212 41.6328 28.903 41.6328 29.5215C41.6328 30.0423 41.8737 30.4785 42.3555 30.8301C42.8372 31.1751 43.6315 31.5137 44.7383 31.8457C45.8451 32.1712 46.7337 32.5456 47.4043 32.9688C48.0749 33.3854 48.5664 33.8672 48.8789 34.4141C49.1914 34.9544 49.3477 35.5892 49.3477 36.3184C49.3477 37.5033 48.8919 38.4473 47.9805 39.1504C47.0755 39.847 45.8451 40.1953 44.2891 40.1953C43.2604 40.1953 42.3132 40.0065 41.4473 39.6289C40.5879 39.2448 39.9173 38.7174 39.4355 38.0469C38.9603 37.3763 38.7227 36.5951 38.7227 35.7031H41.1934C41.1934 36.5104 41.4603 37.1354 41.9941 37.5781C42.528 38.0208 43.293 38.2422 44.2891 38.2422C45.1484 38.2422 45.793 38.0697 46.2227 37.7246C46.6589 37.373 46.877 36.9108 46.877 36.3379ZM54.9824 36.6016L57.1309 29.4336H59.6602L55.4609 41.6016C54.8164 43.3789 53.7227 44.2676 52.1797 44.2676C51.8346 44.2676 51.4538 44.209 51.0371 44.0918V42.2559L51.4863 42.2852C52.0853 42.2852 52.5345 42.1745 52.834 41.9531C53.14 41.7383 53.3809 41.3737 53.5566 40.8594L53.8984 39.9512L50.1875 29.4336H52.7461L54.9824 36.6016ZM63.2344 29.4336L63.3027 30.6543C64.084 29.7103 65.1094 29.2383 66.3789 29.2383C68.5794 29.2383 69.6992 30.498 69.7383 33.0176V40H67.3652V33.1543C67.3652 32.4837 67.2188 31.9889 66.9258 31.6699C66.6393 31.3444 66.1673 31.1816 65.5098 31.1816C64.5527 31.1816 63.8398 31.6146 63.3711 32.4805V40H60.998V29.4336H63.2344ZM76.5059 38.3008C77.0983 38.3008 77.5898 38.1283 77.9805 37.7832C78.3711 37.4382 78.5794 37.0117 78.6055 36.5039H80.8418C80.8158 37.1615 80.6107 37.7767 80.2266 38.3496C79.8424 38.916 79.3216 39.3652 78.6641 39.6973C78.0065 40.0293 77.2969 40.1953 76.5352 40.1953C75.0573 40.1953 73.8854 39.7168 73.0195 38.7598C72.1536 37.8027 71.7207 36.4811 71.7207 34.7949V34.5508C71.7207 32.9427 72.1504 31.6569 73.0098 30.6934C73.8691 29.7233 75.041 29.2383 76.5254 29.2383C77.7819 29.2383 78.804 29.6061 79.5918 30.3418C80.3861 31.071 80.8027 32.0312 80.8418 33.2227H78.6055C78.5794 32.6172 78.3711 32.1191 77.9805 31.7285C77.5964 31.3379 77.1048 31.1426 76.5059 31.1426C75.7376 31.1426 75.1452 31.4225 74.7285 31.9824C74.3118 32.5358 74.1003 33.3789 74.0938 34.5117V34.8926C74.0938 36.0384 74.2988 36.8945 74.709 37.4609C75.1257 38.0208 75.7246 38.3008 76.5059 38.3008ZM84.9727 30.5859C85.7474 29.6875 86.7272 29.2383 87.9121 29.2383C90.1647 29.2383 91.3073 30.5241 91.3398 33.0957V40H88.9668V33.1836C88.9668 32.4544 88.8073 31.9401 88.4883 31.6406C88.1758 31.3346 87.7135 31.1816 87.1016 31.1816C86.151 31.1816 85.4414 31.6048 84.9727 32.4512V40H82.5996V25H84.9727V30.5859ZM99.2793 31.6016C98.9668 31.5495 98.6445 31.5234 98.3125 31.5234C97.2253 31.5234 96.4928 31.9401 96.1152 32.7734V40H93.7422V29.4336H96.0078L96.0664 30.6152C96.6393 29.6973 97.4336 29.2383 98.4492 29.2383C98.7878 29.2383 99.0677 29.2839 99.2891 29.375L99.2793 31.6016ZM99.9824 34.6191C99.9824 33.584 100.188 32.653 100.598 31.8262C101.008 30.9928 101.584 30.3548 102.326 29.9121C103.068 29.4629 103.921 29.2383 104.885 29.2383C106.311 29.2383 107.466 29.6973 108.352 30.6152C109.243 31.5332 109.725 32.7507 109.797 34.2676L109.807 34.8242C109.807 35.8659 109.605 36.7969 109.201 37.6172C108.804 38.4375 108.231 39.0723 107.482 39.5215C106.74 39.9707 105.881 40.1953 104.904 40.1953C103.413 40.1953 102.219 39.7005 101.32 38.7109C100.428 37.7148 99.9824 36.39 99.9824 34.7363V34.6191ZM102.355 34.8242C102.355 35.9115 102.58 36.7643 103.029 37.3828C103.479 37.9948 104.104 38.3008 104.904 38.3008C105.705 38.3008 106.327 37.9883 106.77 37.3633C107.219 36.7383 107.443 35.8236 107.443 34.6191C107.443 33.5514 107.212 32.7051 106.75 32.0801C106.294 31.4551 105.673 31.1426 104.885 31.1426C104.11 31.1426 103.495 31.4518 103.039 32.0703C102.583 32.6823 102.355 33.6003 102.355 34.8242ZM114.016 29.4336L114.084 30.6543C114.865 29.7103 115.891 29.2383 117.16 29.2383C119.361 29.2383 120.48 30.498 120.52 33.0176V40H118.146V33.1543C118.146 32.4837 118 31.9889 117.707 31.6699C117.421 31.3444 116.949 31.1816 116.291 31.1816C115.334 31.1816 114.621 31.6146 114.152 32.4805V40H111.779V29.4336H114.016ZM125.471 40H123.098V29.4336H125.471V40ZM122.951 26.6895C122.951 26.3249 123.065 26.0221 123.293 25.7812C123.527 25.5404 123.859 25.4199 124.289 25.4199C124.719 25.4199 125.051 25.5404 125.285 25.7812C125.52 26.0221 125.637 26.3249 125.637 26.6895C125.637 27.0475 125.52 27.347 125.285 27.5879C125.051 27.8223 124.719 27.9395 124.289 27.9395C123.859 27.9395 123.527 27.8223 123.293 27.5879C123.065 27.347 122.951 27.0475 122.951 26.6895ZM130.598 38.1055H136.223V40H127.648V38.4473L133.01 31.3477H127.746V29.4336H136.018V30.9375L130.598 38.1055ZM140.646 40H138.273V29.4336H140.646V40ZM138.127 26.6895C138.127 26.3249 138.241 26.0221 138.469 25.7812C138.703 25.5404 139.035 25.4199 139.465 25.4199C139.895 25.4199 140.227 25.5404 140.461 25.7812C140.695 26.0221 140.812 26.3249 140.812 26.6895C140.812 27.0475 140.695 27.347 140.461 27.5879C140.227 27.8223 139.895 27.9395 139.465 27.9395C139.035 27.9395 138.703 27.8223 138.469 27.5879C138.241 27.347 138.127 27.0475 138.127 26.6895ZM145.441 29.4336L145.51 30.6543C146.291 29.7103 147.316 29.2383 148.586 29.2383C150.786 29.2383 151.906 30.498 151.945 33.0176V40H149.572V33.1543C149.572 32.4837 149.426 31.9889 149.133 31.6699C148.846 31.3444 148.374 31.1816 147.717 31.1816C146.76 31.1816 146.047 31.6146 145.578 32.4805V40H143.205V29.4336H145.441ZM153.957 34.6387C153.957 32.998 154.341 31.6895 155.109 30.7129C155.884 29.7298 156.91 29.2383 158.186 29.2383C159.39 29.2383 160.337 29.6582 161.027 30.498L161.135 29.4336H163.273V39.6777C163.273 41.0645 162.84 42.1582 161.975 42.959C161.115 43.7598 159.953 44.1602 158.488 44.1602C157.714 44.1602 156.955 43.9974 156.213 43.6719C155.477 43.3529 154.917 42.9329 154.533 42.4121L155.656 40.9863C156.385 41.8522 157.284 42.2852 158.352 42.2852C159.139 42.2852 159.761 42.0703 160.217 41.6406C160.673 41.2174 160.9 40.5924 160.9 39.7656V39.0527C160.217 39.8145 159.305 40.1953 158.166 40.1953C156.929 40.1953 155.917 39.7038 155.129 38.7207C154.348 37.7376 153.957 36.377 153.957 34.6387ZM156.32 34.8438C156.32 35.9049 156.535 36.7415 156.965 37.3535C157.401 37.959 158.003 38.2617 158.771 38.2617C159.729 38.2617 160.438 37.8516 160.9 37.0312V32.3828C160.451 31.582 159.748 31.1816 158.791 31.1816C158.01 31.1816 157.401 31.4909 156.965 32.1094C156.535 32.7279 156.32 33.6393 156.32 34.8438Z" fill="white"/>
<path d="M8.93945 71V61.7578H12.1069C13.1522 61.7578 13.9478 61.9673 14.4937 62.3862C15.0396 62.8052 15.3125 63.4294 15.3125 64.2588C15.3125 64.682 15.1982 65.0628 14.9697 65.4014C14.7412 65.7399 14.4069 66.0023 13.9668 66.1885C14.4661 66.3239 14.8512 66.5799 15.1221 66.9565C15.3971 67.3289 15.5347 67.7775 15.5347 68.3022C15.5347 69.1698 15.2554 69.8363 14.6968 70.3018C14.1424 70.7673 13.3468 71 12.3101 71H8.93945ZM10.5454 66.8296V69.7178H12.3291C12.8327 69.7178 13.2262 69.5929 13.5098 69.3433C13.7933 69.0936 13.9351 68.7466 13.9351 68.3022C13.9351 67.3416 13.4442 66.8507 12.4624 66.8296H10.5454ZM10.5454 65.6489H12.1196C12.619 65.6489 13.0083 65.5368 13.2876 65.3125C13.5711 65.084 13.7129 64.7624 13.7129 64.3477C13.7129 63.8906 13.5817 63.5605 13.3193 63.3574C13.0612 63.1543 12.6571 63.0527 12.1069 63.0527H10.5454V65.6489ZM18.6323 71H17.0898V61.25H18.6323V71ZM20.0288 67.5024C20.0288 66.8296 20.1621 66.2244 20.4287 65.687C20.6953 65.1453 21.0698 64.7306 21.5522 64.4429C22.0347 64.1509 22.589 64.0049 23.2153 64.0049C24.1421 64.0049 24.8932 64.3032 25.4688 64.8999C26.0485 65.4966 26.3617 66.2879 26.4082 67.2739L26.4146 67.6357C26.4146 68.3128 26.2834 68.918 26.021 69.4512C25.7629 69.9844 25.3905 70.397 24.9038 70.689C24.4214 70.981 23.8628 71.127 23.228 71.127C22.259 71.127 21.4824 70.8053 20.8984 70.1621C20.3187 69.5146 20.0288 68.6535 20.0288 67.5786V67.5024ZM21.5713 67.6357C21.5713 68.3424 21.7173 68.8968 22.0093 69.2988C22.3013 69.6966 22.7075 69.8955 23.228 69.8955C23.7485 69.8955 24.1527 69.6924 24.4404 69.2861C24.7324 68.8799 24.8784 68.2853 24.8784 67.5024C24.8784 66.8084 24.7282 66.2583 24.4277 65.8521C24.1315 65.4458 23.7274 65.2427 23.2153 65.2427C22.7118 65.2427 22.3118 65.4437 22.0156 65.8457C21.7194 66.2435 21.5713 66.8402 21.5713 67.6357ZM30.5405 69.8955C30.9256 69.8955 31.2451 69.7834 31.499 69.5591C31.7529 69.3348 31.8883 69.0576 31.9053 68.7275H33.3589C33.342 69.1549 33.2087 69.5549 32.959 69.9272C32.7093 70.2954 32.3708 70.5874 31.9434 70.8032C31.516 71.019 31.0547 71.127 30.5596 71.127C29.599 71.127 28.8372 70.8159 28.2744 70.1938C27.7116 69.5718 27.4302 68.7127 27.4302 67.6167V67.458C27.4302 66.4128 27.7095 65.577 28.2681 64.9507C28.8267 64.3201 29.5884 64.0049 30.5532 64.0049C31.37 64.0049 32.0343 64.244 32.5464 64.7222C33.0627 65.1961 33.3335 65.8203 33.3589 66.5947H31.9053C31.8883 66.2012 31.7529 65.8774 31.499 65.6235C31.2493 65.3696 30.9299 65.2427 30.5405 65.2427C30.0412 65.2427 29.6561 65.4246 29.3853 65.7886C29.1144 66.1483 28.9769 66.6963 28.9727 67.4326V67.6802C28.9727 68.425 29.106 68.9814 29.3726 69.3496C29.6434 69.7135 30.0327 69.8955 30.5405 69.8955ZM36.7549 68.0547L36.0693 68.7593V71H34.5269V61.25H36.0693V66.874L36.5518 66.271L38.4497 64.1318H40.3032L37.7515 66.9946L40.5762 71H38.7925L36.7549 68.0547ZM45.1655 69.1338C45.1655 68.8587 45.0513 68.6493 44.8228 68.5054C44.5985 68.3615 44.224 68.2345 43.6992 68.1245C43.1745 68.0145 42.7365 67.8748 42.3853 67.7056C41.6151 67.3332 41.23 66.7936 41.23 66.0869C41.23 65.4945 41.4797 64.9993 41.979 64.6016C42.4784 64.2038 43.1131 64.0049 43.8833 64.0049C44.7043 64.0049 45.3665 64.208 45.8701 64.6143C46.3779 65.0205 46.6318 65.5474 46.6318 66.1948H45.0894C45.0894 65.8986 44.9793 65.6532 44.7593 65.4585C44.5392 65.2596 44.2472 65.1602 43.8833 65.1602C43.5448 65.1602 43.2676 65.2384 43.0518 65.395C42.8402 65.5516 42.7344 65.7611 42.7344 66.0234C42.7344 66.2604 42.8338 66.4445 43.0327 66.5757C43.2316 66.7069 43.6336 66.8402 44.2388 66.9756C44.8439 67.1068 45.3179 67.2655 45.6606 67.4517C46.0076 67.6336 46.2637 67.8537 46.4287 68.1118C46.598 68.37 46.6826 68.6831 46.6826 69.0513C46.6826 69.6691 46.4266 70.1706 45.9146 70.5557C45.4025 70.9365 44.7318 71.127 43.9023 71.127C43.3395 71.127 42.8381 71.0254 42.3979 70.8223C41.9578 70.6191 41.6151 70.3398 41.3696 69.9844C41.1242 69.6289 41.0015 69.2459 41.0015 68.8354H42.4995C42.5207 69.1994 42.6582 69.4808 42.9121 69.6797C43.166 69.8743 43.5024 69.9717 43.9214 69.9717C44.3276 69.9717 44.6366 69.8955 44.8481 69.7432C45.0597 69.5866 45.1655 69.3835 45.1655 69.1338ZM54.8647 65.541C54.6616 65.5072 54.4521 65.4902 54.2363 65.4902C53.5296 65.4902 53.0535 65.7611 52.8081 66.3027V71H51.2656V64.1318H52.7383L52.7764 64.8999C53.1488 64.3032 53.665 64.0049 54.3252 64.0049C54.5452 64.0049 54.7272 64.0345 54.8711 64.0938L54.8647 65.541ZM58.7368 71.127C57.7593 71.127 56.9658 70.8201 56.3564 70.2065C55.7513 69.5887 55.4487 68.7677 55.4487 67.7437V67.5532C55.4487 66.8677 55.5799 66.2562 55.8423 65.7188C56.1089 65.1771 56.4813 64.756 56.9595 64.4556C57.4377 64.1551 57.9709 64.0049 58.5591 64.0049C59.4943 64.0049 60.2158 64.3032 60.7236 64.8999C61.2357 65.4966 61.4917 66.3408 61.4917 67.4326V68.0547H57.0039C57.0505 68.6217 57.2388 69.0703 57.5688 69.4004C57.9032 69.7305 58.3221 69.8955 58.8257 69.8955C59.5324 69.8955 60.1079 69.6099 60.5522 69.0386L61.3838 69.832C61.1087 70.2425 60.7406 70.562 60.2793 70.7905C59.8223 71.0148 59.3081 71.127 58.7368 71.127ZM58.5527 65.2427C58.1296 65.2427 57.7868 65.3908 57.5244 65.687C57.2663 65.9832 57.1012 66.3958 57.0293 66.9248H59.9683V66.8105C59.9344 66.2943 59.7969 65.9049 59.5557 65.6426C59.3145 65.376 58.9801 65.2427 58.5527 65.2427ZM64.145 64.1318L64.1895 64.8491C64.6719 64.2863 65.332 64.0049 66.1699 64.0049C67.0882 64.0049 67.7166 64.3561 68.0552 65.0586C68.5545 64.3561 69.257 64.0049 70.1626 64.0049C70.9201 64.0049 71.4829 64.2144 71.8511 64.6333C72.2235 65.0522 72.4139 65.6701 72.4224 66.4868V71H70.8799V66.5312C70.8799 66.0954 70.7847 65.7759 70.5942 65.5728C70.4038 65.3696 70.0885 65.2681 69.6484 65.2681C69.2972 65.2681 69.0094 65.3633 68.7852 65.5537C68.5651 65.7399 68.4106 65.9854 68.3218 66.29L68.3281 71H66.7856V66.4805C66.7645 65.6722 66.3519 65.2681 65.5479 65.2681C64.93 65.2681 64.492 65.5199 64.2339 66.0234V71H62.6914V64.1318H64.145ZM78.1099 71C78.0422 70.8688 77.9829 70.6551 77.9321 70.3589C77.4412 70.8709 76.8403 71.127 76.1294 71.127C75.4396 71.127 74.8768 70.9302 74.4409 70.5366C74.005 70.1431 73.7871 69.6564 73.7871 69.0767C73.7871 68.3446 74.0579 67.7839 74.5996 67.3945C75.1455 67.001 75.9242 66.8042 76.9355 66.8042H77.8813V66.3535C77.8813 65.998 77.7819 65.7145 77.583 65.5029C77.3841 65.2871 77.0815 65.1792 76.6753 65.1792C76.3241 65.1792 76.0363 65.2681 75.812 65.4458C75.5877 65.6193 75.4756 65.8415 75.4756 66.1123H73.9331C73.9331 65.7357 74.0579 65.3844 74.3076 65.0586C74.5573 64.7285 74.8958 64.4704 75.3232 64.2842C75.7549 64.098 76.2352 64.0049 76.7642 64.0049C77.5682 64.0049 78.2093 64.208 78.6875 64.6143C79.1657 65.0163 79.4111 65.5833 79.4238 66.3154V69.4131C79.4238 70.0309 79.5106 70.5239 79.6841 70.8921V71H78.1099ZM76.415 69.8892C76.7197 69.8892 77.0054 69.8151 77.272 69.667C77.5428 69.5189 77.7459 69.32 77.8813 69.0703V67.7754H77.0498C76.4785 67.7754 76.049 67.8748 75.7612 68.0737C75.4735 68.2726 75.3296 68.554 75.3296 68.918C75.3296 69.2142 75.4269 69.4512 75.6216 69.6289C75.8205 69.8024 76.085 69.8892 76.415 69.8892ZM82.6802 71H81.1377V64.1318H82.6802V71ZM81.0425 62.3481C81.0425 62.1112 81.1165 61.9144 81.2646 61.7578C81.417 61.6012 81.6328 61.5229 81.9121 61.5229C82.1914 61.5229 82.4072 61.6012 82.5596 61.7578C82.7119 61.9144 82.7881 62.1112 82.7881 62.3481C82.7881 62.5809 82.7119 62.7756 82.5596 62.9321C82.4072 63.0845 82.1914 63.1606 81.9121 63.1606C81.6328 63.1606 81.417 63.0845 81.2646 62.9321C81.1165 62.7756 81.0425 62.5809 81.0425 62.3481ZM85.7969 64.1318L85.8413 64.9253C86.3491 64.3117 87.0156 64.0049 87.8408 64.0049C89.2712 64.0049 89.999 64.8237 90.0244 66.4614V71H88.4819V66.5503C88.4819 66.1144 88.3867 65.7928 88.1963 65.5854C88.0101 65.3739 87.7033 65.2681 87.2759 65.2681C86.6538 65.2681 86.1904 65.5495 85.8857 66.1123V71H84.3433V64.1318H85.7969ZM93.2427 71H91.7002V64.1318H93.2427V71ZM91.605 62.3481C91.605 62.1112 91.679 61.9144 91.8271 61.7578C91.9795 61.6012 92.1953 61.5229 92.4746 61.5229C92.7539 61.5229 92.9697 61.6012 93.1221 61.7578C93.2744 61.9144 93.3506 62.1112 93.3506 62.3481C93.3506 62.5809 93.2744 62.7756 93.1221 62.9321C92.9697 63.0845 92.7539 63.1606 92.4746 63.1606C92.1953 63.1606 91.9795 63.0845 91.8271 62.9321C91.679 62.7756 91.605 62.5809 91.605 62.3481ZM96.3594 64.1318L96.4038 64.9253C96.9116 64.3117 97.5781 64.0049 98.4033 64.0049C99.8337 64.0049 100.562 64.8237 100.587 66.4614V71H99.0444V66.5503C99.0444 66.1144 98.9492 65.7928 98.7588 65.5854C98.5726 65.3739 98.2658 65.2681 97.8384 65.2681C97.2163 65.2681 96.7529 65.5495 96.4482 66.1123V71H94.9058V64.1318H96.3594ZM101.895 67.5151C101.895 66.4487 102.144 65.5981 102.644 64.9634C103.147 64.3244 103.814 64.0049 104.643 64.0049C105.426 64.0049 106.042 64.2778 106.49 64.8237L106.56 64.1318H107.95V70.7905C107.95 71.6919 107.669 72.4028 107.106 72.9233C106.547 73.4438 105.792 73.7041 104.84 73.7041C104.336 73.7041 103.843 73.5983 103.361 73.3867C102.883 73.1794 102.519 72.9064 102.269 72.5679L102.999 71.6411C103.473 72.2039 104.057 72.4854 104.751 72.4854C105.263 72.4854 105.667 72.3457 105.963 72.0664C106.26 71.7913 106.408 71.3851 106.408 70.8477V70.3843C105.963 70.8794 105.371 71.127 104.63 71.127C103.826 71.127 103.168 70.8075 102.656 70.1685C102.148 69.5295 101.895 68.645 101.895 67.5151ZM103.431 67.6484C103.431 68.3382 103.57 68.882 103.85 69.2798C104.133 69.6733 104.525 69.8701 105.024 69.8701C105.646 69.8701 106.107 69.6035 106.408 69.0703V66.0488C106.116 65.5283 105.659 65.2681 105.037 65.2681C104.529 65.2681 104.133 65.4691 103.85 65.8711C103.57 66.2731 103.431 66.8656 103.431 67.6484Z" fill="white"/>
<rect opacity="0.2" x="8" y="80" width="260" height="8" rx="4" fill="white"/>
<rect x="8" y="80" width="171" height="8" rx="4" fill="#FA6800"/>
</svg>
